<svg xmlns="http://www.w3.org/2000/svg" width="500" height="500" style="width:100%;height:100%;transform:translate3d(0,0,0)"><defs><clipPath id="b"><path d="M0 0h500v500H0z"/></clipPath><clipPath id="c"><path d="M0 0h500v500H0z"/></clipPath><mask id="e" mask-type="alpha"><g filter="url(#a)"><path fill="#FFF" d="M-59-167.75-134.75-80-52-44.25l64.25-110.5-71.25-13z" transform="translate(250 250)" style="display:block"/></g></mask><mask id="d" mask-type="alpha"><g style="display:block"><path fill="#FFF" d="M84-118.75 24.25-30 34-23.25l60.75-88-10.75-7.5z" transform="translate(294 276)"/><path fill="#FFF" d="M97-104.25 41.75-21l4.5 1.5L100-101.75l-3-2.5z" transform="translate(291.5 275.25)"/></g></mask><filter id="a" filterUnits="objectBoundingBox" x="0%" y="0%" width="100%" height="100%"><feComponentTransfer in="SourceGraphic"><feFuncA type="table" tableValues="1.0 0.0"/></feComponentTransfer></filter></defs><g clip-path="url(#b)"><g clip-path="url(#c)" style="display:block"><g style="display:block"><path fill="#FCED6D" d="M469.339 436.853c-9.596-19.969-17.215-31.628-26.306-47.718-44.598-78.932-87.215-158.014-134.395-233.71-18.142-29.107-35.484-64.355-52.088-91.999-.718-1.195-1.963-2.307-3.351-2.183-.972.087-2.091 2.165-2.602 2.996-11.605 18.889-21.508 36.263-32.577 56.841-15.423 28.671-80.89 138.211-98.971 165.442-9.074 13.666-18.136 27.414-25.223 42.209-8.134 16.982-50.495 91.651-63.165 110.036l438.678-1.914z"/><path stroke-linecap="round" stroke-linejoin="round" stroke="#242430" stroke-width="3.388" d="M469.339 436.853c-9.596-19.969-17.215-31.628-26.306-47.718-44.598-78.932-87.215-158.014-134.395-233.71-18.142-29.107-35.484-64.355-52.088-91.999-.718-1.195-1.963-2.307-3.351-2.183-.972.087-2.091 2.165-2.602 2.996-11.605 18.889-21.508 36.263-32.577 56.841-15.423 28.671-80.89 138.211-98.971 165.442-9.074 13.666-18.136 27.414-25.223 42.209-8.134 16.982-50.495 91.651-63.165 110.036l438.678-1.914z" fill="none"/><path fill="#FF89B3" d="M456.692 417.853c-8.547-17.785-15.882-27.505-23.979-41.835-39.721-70.299-76.851-139.716-118.872-207.133-16.158-25.923-44.843-82.759-48.977-85.2-.748-.442-19.679 33.091-29.538 51.418-13.736 25.536-69.607 125.23-85.71 149.483-8.082 12.172-16.136 25.086-22.448 38.263-7.244 15.125-43.815 80.05-55.1 96.424"/><path stroke-linecap="round" stroke-linejoin="round" stroke="#3FA8F4" stroke-width="3.388" d="M73.714 420.127c55.455-.83 147.563-1.549 197.104-1.8" fill="none"/><path fill="#F17965" d="M302.698 417.427h-24.84"/><path stroke-linecap="round" stroke-linejoin="round" stroke="#3FA8F4" stroke-width="4.411" d="M302.698 417.427h-24.84" fill="none"/><path fill="#F17965" d="M328.675 417.427h-11.194"/><path stroke-linecap="round" stroke-linejoin="round" stroke="#3FA8F4" stroke-width="4.411" d="M328.675 417.427h-11.194" fill="none"/><path fill="#F17965" d="M396.388 417.427h-5.598"/><path stroke-linecap="round" stroke-linejoin="round" stroke="#3FA8F4" stroke-width="4.411" d="M396.388 417.427h-5.598" fill="none"/><path fill="#F17965" d="M454.262 417.427h-23.196"/><path stroke-linecap="round" stroke-linejoin="round" stroke="#3FA8F4" stroke-width="4.411" d="M454.262 417.427h-23.196" fill="none"/><path stroke-linecap="round" stroke-linejoin="round" stroke="#3FA8F4" stroke-width="3.388" d="m72.325 419.221-34.364 15.71" fill="none"/><path fill="#FCED6D" d="m244.183 123.88-41.25 70.57-8.566-14.468 33.734-56.102h16.082z"/><path stroke-linecap="round" stroke-linejoin="round" stroke="#3FA8F4" stroke-width="3.388" d="M132.625 313.452 72.143 418.096" fill="none"/><path stroke-linecap="round" stroke-linejoin="round" stroke="#3FA8F4" stroke-width="4.411" d="m264.555 85.97-116.22 200.3" fill="none"/></g><g style="display:block"><path fill="#FF7A64" d="M171.912 431.388c-6.937-28.351-9.384-57.776-3.632-86.391 2.063-10.263 3.874-18.368 5.784-27.935 1.356-6.79 4.798-13.623 6.076-20.428a59.917 59.917 0 0 1 10.846-24.7c.953-1.275 2.023-2.562 3.496-3.165 1.402-.574 2.988-.45 4.479-.181 5.89 1.062 11.199 4.181 16.102 7.613a119.276 119.276 0 0 1 31.268 32.24c7.866-8.811 5.029-23.463-2.955-32.167s-19.601-12.928-30.743-16.846c17.591.972 34.876 6.966 49.292 17.093 1.367-5.122 2.741-10.324 2.655-15.624-.086-5.3-1.824-10.805-5.79-14.322-3.477-3.084-8.186-4.707-12.83-4.884-34.412-1.312-35.61 3.621-48.503 15.48 1.128-6.811 1.236-13.94-.981-20.478-2.217-6.538-7.01-12.423-13.49-14.804-9.336-3.43-19.735.901-27.945 6.516 14.676 2.109 28.267 10.856 36.265 23.341-7.216-5.419-15.97-8.239-24.965-8.977-11.707-.96-18.112 6.193-20.463 14.906 11.409-.886 23.495-1.644 33.68 3.574-7.752-4.202-17.908-3.491-24.999 1.751-7.091 5.242-11.793 15.274-7.217 26.285 11.04-12.228 26.097-21.87 42.526-20.64-9.517 13.632-19.083 27.349-26.135 42.405-5.642 12.044-9.603 24.796-13.348 37.558-4.271 14.553-5.773 24.879-8.639 44.531-1.917 13.143.163 28.561 2.727 41.593 0 0 16.26 4.17 27.731-2.961"/><path stroke-miterlimit="10" stroke="#FF7A64" stroke-width=".341" d="M171.912 431.388c-6.937-28.351-9.384-57.776-3.632-86.391 2.063-10.263 3.874-18.368 5.784-27.935 1.356-6.79 4.798-13.623 6.076-20.428a59.917 59.917 0 0 1 10.846-24.7c.953-1.275 2.023-2.562 3.496-3.165 1.402-.574 2.988-.45 4.479-.181 5.89 1.062 11.199 4.181 16.102 7.613a119.276 119.276 0 0 1 31.268 32.24c7.866-8.811 5.029-23.463-2.955-32.167s-19.601-12.928-30.743-16.846c17.591.972 34.876 6.966 49.292 17.093 1.367-5.122 2.741-10.324 2.655-15.624-.086-5.3-1.824-10.805-5.79-14.322-3.477-3.084-8.186-4.707-12.83-4.884-34.412-1.312-35.61 3.621-48.503 15.48 1.128-6.811 1.236-13.94-.981-20.478-2.217-6.538-7.01-12.423-13.49-14.804-9.336-3.43-19.735.901-27.945 6.516 14.676 2.109 28.267 10.856 36.265 23.341-7.216-5.419-15.97-8.239-24.965-8.977-11.707-.96-18.112 6.193-20.463 14.906 11.409-.886 23.495-1.644 33.68 3.574-7.752-4.202-17.908-3.491-24.999 1.751-7.091 5.242-11.793 15.274-7.217 26.285 11.04-12.228 26.097-21.87 42.526-20.64-9.517 13.632-19.083 27.349-26.135 42.405-5.642 12.044-9.603 24.796-13.348 37.558-4.271 14.553-5.773 24.879-8.639 44.531-1.917 13.143.163 28.561 2.727 41.593 0 0 16.26 4.17 27.731-2.961" fill="none"/></g><g style="display:block"><path stroke-linecap="round" stroke-linejoin="round" stroke="#242430" stroke-width="3.235" d="M196.092 261.407c15.96-2.659 30.66 1.406 43.003 11.867 2.42 2.051 8.983 6.444 10.406 8.389 1.914 2.617 5.854 11.218-2.961 26.701-2.985-8.568-6.912-15.472-14.342-22.806-.423-.417-.76 2.263-1.184 1.848-1.911-1.87-4.281-6.263-6.322-8.022-.59-.508-.774 1.517-1.378 1.03-3.772-3.04-12.762-8.905-17.359-10.364" fill="none"/><path stroke-linecap="round" stroke-linejoin="round" stroke="#242430" stroke-width="3.235" d="M198.701 258.39c3.603-6.592 6.841-11.736 13.951-14.163 3.556-1.214 7.406-1.2 11.158-.996 4.555.248 34.694 3.207 36.337 6.913 4.883 11.014-.269 19.591-2.35 22.627a181.142 181.142 0 0 0-8.948-8.908l-.368 1.758c-3.25-3.438-6.163-4.975-9.874-6.709l-.571 3.012c-3.954-2.763-6.529-3.917-11.102-5.457l1.616 4.273-10.78-2.725c-2.239-.566-4.766-1.092-6.731.12M198.372 253.258c1.131-7.876-.588-16.129-4.769-22.899-1.339-2.168-2.962-4.225-5.107-5.601-1.674-1.074-3.604-1.692-5.553-2.089-8.838-1.8-18.488 1.032-24.951 7.323a75.009 75.009 0 0 0 10.501 1.703 2.9 2.9 0 0 0-1.738 1.534c5.68.675 8.453 2.391 12.933 4.366a6.107 6.107 0 0 0-4.594 1.21c2.672 1.091 8.821 4.302 10.406 6.536M194.266 256.266c-3.527-6.237-9.793-10.86-16.794-12.388-3.222-.703-7.873-1.568-11.168-1.688-3.497-.128-8.53-.172-11.587 1.382-1.678.853-3.175 2.03-4.528 3.339-3.967 3.84-4.39 10.477-4.925 16.094a164.336 164.336 0 0 1 11.862-8.087 7.305 7.305 0 0 0-.349 2.464 37.663 37.663 0 0 1 11.396-1.331l-1.516 2.122c4.994.834 10.733.933 15.727 1.767-.258.148-1.262 1.033-1.52 1.181 2.168.274 4.245.805 5.962 1.575" fill="none"/><path stroke-linecap="round" stroke-linejoin="round" stroke="#242430" stroke-width="3.235" d="M159.634 258.666c-3.134 1.501-12.173 6.128-15.321 17.265-1.706 6.036-.198 10.583 1.988 16.481 1.716-2.564 8.674-12.425 10.768-14.691 2.284-2.472-.281 3.901 1.87 1.454 2.634-2.996 5.057-6.901 10.427-8.976l-.283 2.285c1.943-1.472 2.948-2.308 5.152-2.896M181.531 295.044c3.549-8.187 6.941-13.631 11.202-19.406M168.11 430.066c-11.71-31.811-4.425-91.865 11.985-131.194M174.096 296.815c-9.56 17.571-19.517 41.207-22.253 54.051-3.831 17.983-6.952 32.197-7.915 52.663-.399 8.48.356 18.601 2.098 26.91M181.688 282.827c-2.57 3.323-2.681 4.305-5.726 9.732" fill="none"/><path stroke-linecap="round" stroke-linejoin="round" stroke="#242430" stroke-width="3.235" d="M145.722 425.078c3.247.792 6.555 1.59 9.89 1.375a16.643 16.643 0 0 0 9.858-4.098M145.342 414.755a15.555 15.555 0 0 0 9.53 2.257 15.549 15.549 0 0 0 8.968-3.936M144.871 402.92c3.548 1.533 7.312 3.1 11.146 2.611 2.375-.303 4.575-1.379 6.698-2.487M145.362 392.272c2.655 1.107 5.391 2.103 8.248 2.43 2.857.327 5.872-.064 8.322-1.571M146.834 381.977c4.509 2.654 10.24 3.123 15.12 1.235M148.191 372.833c4.386 2.2 9.662 2.55 14.3.949M150.217 362.369c3.718 2.706 8.844 3.347 13.114 1.64M152.138 352.328c2.687 3.721 8.003 5.28 12.274 3.6M154.76 343.316c2.862 2.399 7.154 2.935 10.518 1.312M157.91 335.246c1.542 1.114 3.316 2.162 5.212 2.005.707-.059 1.389-.284 2.062-.508l2.454-.816M161.502 326.264c1.912 2.318 5.647 2.854 8.134 1.167M165.363 317.144c1.925 1.896 4.745 2.843 7.424 2.492M168.801 309.55c1.346 1.779 3.76 2.679 5.942 2.214M171.859 302.207a7.116 7.116 0 0 0 5.33 2.656M179.402 289.258c.659 1.153 2.027 1.858 3.348 1.727M182.075 283.132a5.775 5.775 0 0 0 3.752 1.934M169.833 292.607c3.553 5.052 10.337 7.587 16.332 6.104" fill="none"/></g><g style="display:block"><path fill="#FF7A64" d="M187.376 272.485c.032-1.402-.219-2.979-1.054-4.14-1.842-2.561-5.439-3.878-8.397-2.588a.613.613 0 0 0-.118.07c-1.072.536-1.954 1.312-2.532 2.375-.569 1.048-.828 2.308-.827 3.493.002 2.695 1.336 5.372 3.845 6.549 1.272.597 2.654.587 3.986.204 1.374-.395 2.727-.945 3.679-2.053.923-1.075 1.386-2.506 1.418-3.91z"/><path fill="#FFEE6E" d="M188.292 272.84c.032-1.402-.219-2.979-1.054-4.14-1.842-2.561-5.439-3.878-8.397-2.588a.613.613 0 0 0-.118.07c-1.072.536-1.954 1.312-2.532 2.375-.569 1.048-.828 2.308-.827 3.493.002 2.695 1.336 5.372 3.845 6.549 1.272.597 2.654.587 3.986.204 1.374-.395 2.727-.945 3.679-2.053.923-1.075 1.386-2.506 1.418-3.91z"/><path stroke-linecap="round" stroke-linejoin="round" stroke="#242430" stroke-width="1.47" d="M184.703 269.911c-1.679.307-3.385.47-5.092.488a20.448 20.448 0 0 1 3.94 3.912l-5.052-.686" fill="none"/><path stroke-linecap="round" stroke-linejoin="round" stroke="#242430" stroke-width="1.47" d="M182.996 268.391c-.461 2.609-2.051 4.907-2.558 7.508" fill="none"/><path fill="#FF7A64" d="M205.165 277.877c.615-1.501.99-3.314.547-4.929-.978-3.562-4.413-6.535-8.218-6.414a.715.715 0 0 0-.16.025 9.892 9.892 0 0 0-4.13 1.334c-1.5.907-2.048 2.196-2.537 3.478-1.112 2.914-.219 6.466 2.069 8.819 1.16 1.193 2.692 1.778 4.324 1.937 1.683.165 3.408.154 4.919-.634 1.466-.764 2.57-2.112 3.186-3.616z"/><path fill="#FFEE6E" d="M192.133 271.143c-1.115 2.142-.817 3.982.024 5.726.887 1.838 2.426 3.372 4.308 4.16 1.982.83 4.415.762 6.141-.519.846-.628 1.479-1.499 2.042-2.39.364-.576.707-1.172.922-1.818.442-1.329.305-2.813-.237-4.104s-1.47-2.396-2.558-3.278c-.417-.338-.863-.648-1.357-.859-.435-.186-.899-.291-1.367-.363-1.518-.233-3.105-.108-4.529.468-1.424.576-2.673 1.619-3.397 2.974"/><path stroke-miterlimit="10" stroke="#FFEE6E" stroke-width=".416" d="M192.133 271.143c-1.115 2.142-.817 3.982.024 5.726.887 1.838 2.426 3.372 4.308 4.16 1.982.83 4.415.762 6.141-.519.846-.628 1.479-1.499 2.042-2.39.364-.576.707-1.172.922-1.818.442-1.329.305-2.813-.237-4.104s-1.47-2.396-2.558-3.278c-.417-.338-.863-.648-1.357-.859-.435-.186-.899-.291-1.367-.363-1.518-.233-3.105-.108-4.529.468-1.424.576-2.673 1.619-3.397 2.974" fill="none"/><path stroke-linecap="round" stroke-linejoin="round" stroke="#242430" stroke-width="1.47" d="M199.632 270.187a34.74 34.74 0 0 1-4.325 4.041c2.148-.023 4.299.25 6.374.806l-5.116 2.937" fill="none"/><path stroke-linecap="round" stroke-linejoin="round" stroke="#242430" stroke-width="1.47" d="M196.993 269.998c1.419 2.718 1.583 5.948 2.954 8.69" fill="none"/></g><g style="display:block"><path fill="#FF7A64" d="M354.664 310.869c-6.902-11.186-22.329 15.057-26.109 27.646-3.682-6.358-4.887-14.109-3.31-21.285 1.564-7.115 6.841-14.196 14.111-14.673-10.636-3.801-22.337-.187-33.041 3.419 1.787-8.401 9.903-14.279 18.302-16.079 8.399-1.8 17.112-.331 25.574 1.141-1.999-3.076-4.757-5.571-7.482-8.027-9.438-8.507-19.463-17.326-31.862-20.099 8.119-5.184 21.173-5.868 30.75-1.464 10.507 4.831 18.895 19.427 21.734 30.638 3.3-6.972 10.428-11.781 17.64-14.517 6.503-2.467 15.138-3.491 21.081-2.17 5.943 1.321 12.711 0 15.811 14.571-13.468-1.149-30.645-.456-42.823 5.409a125.81 125.81 0 0 1 29.226-1.97c3.949.196 7.989.605 11.545 2.335 6.994 3.403 10.663 11.065 13.816 18.175 0 0-51.447-15.578-65.708-5.347 0 0 26.352 78.436 11.471 124.01 0 0-8.921 3.574-17.03 1.021 0 0 19.912-84.474-3.696-122.734z"/><path stroke-miterlimit="10" stroke="#FF7A64" stroke-width=".341" d="M354.664 310.869c-6.902-11.186-22.329 15.057-26.109 27.646-3.682-6.358-4.887-14.109-3.31-21.285 1.564-7.115 6.841-14.196 14.111-14.673-10.636-3.801-22.337-.187-33.041 3.419 1.787-8.401 9.903-14.279 18.302-16.079 8.399-1.8 17.112-.331 25.574 1.141-1.999-3.076-4.757-5.571-7.482-8.027-9.438-8.507-19.463-17.326-31.862-20.099 8.119-5.184 21.173-5.868 30.75-1.464 10.507 4.831 18.895 19.427 21.734 30.638 3.3-6.972 10.428-11.781 17.64-14.517 6.503-2.467 15.138-3.491 21.081-2.17 5.943 1.321 12.711 0 15.811 14.571-13.468-1.149-30.645-.456-42.823 5.409a125.81 125.81 0 0 1 29.226-1.97c3.949.196 7.989.605 11.545 2.335 6.994 3.403 10.663 11.065 13.816 18.175 0 0-51.447-15.578-65.708-5.347 0 0 26.352 78.436 11.471 124.01 0 0-8.921 3.574-17.03 1.021 0 0 19.912-84.474-3.696-122.734z" fill="none"/></g><g style="display:block"><path stroke-linecap="round" stroke-linejoin="round" stroke="#242430" stroke-width="3.235" d="M360.29 323.025a215.023 215.023 0 0 1 2.47 11.856M363.531 339.359c3.738 22.729 3.904 46.226.421 69.051-1.256 8.231-3.012 16.475-6.46 23.881M369.341 337.832c7.824 29.454 10.209 60.769 6.854 91.348M363.268 317.198c1.964 5.443 3.135 8.526 4.704 14.13M360.257 308.412a35.535 35.535 0 0 1 3.76-6.565c1.336-1.844 2.881-3.585 4.82-4.781 1.79-1.104 3.843-1.7 5.881-2.219a102.398 102.398 0 0 1 36.919-2.491c3.194.368 6.568.979 8.949 3.139 1.946 1.766 2.95 4.326 3.716 6.84a57.55 57.55 0 0 1 1.781 7.713 30.635 30.635 0 0 1-13.212-6.743c-.774 1.684-2.834 2.462-4.681 2.302-1.847-.16-3.537-1.058-5.168-1.939l.593 2.169a19.446 19.446 0 0 1-6.921-1.779l.398 1.475c-4.398.05-8.634-1.479-12.89-2.589-4.256-1.11-8.893-1.785-12.956-.102" fill="none"/><path stroke-linecap="round" stroke-linejoin="round" stroke="#242430" stroke-width="3.235" d="M358.753 305.339c2.253-7.919 7.162-15.022 13.639-20.105 6.477-5.083 14.476-8.149 22.673-8.918 4.193-.394 8.581-.166 12.354 1.705 3.773 1.871 6.8 5.659 6.82 9.871a103.864 103.864 0 0 0-8.545-4.018 8.72 8.72 0 0 0 1.493 3.206 66.748 66.748 0 0 0-11.664-1.458l1.908 2.491c-4.062-.24-11.809-2.007-15.494-.281-3.456 1.619-6.291 3.269-8.626 4.892M361.493 291.489c-2.414-5.438-4.844-10.907-8.164-15.844-3.32-4.937-7.611-9.361-12.953-11.98-8.375-4.105-18.225-3.353-27.483-2.218 1.654 2.879 4.414 5.01 7.44 6.379 3.026 1.369 6.322 2.03 9.611 2.488-1.969.061-3.941.04-5.909-.063 3.519 4.34 9.002 7.023 14.588 7.137l-5.842.633a36.145 36.145 0 0 0 10.7 4.605l-3.344 1.129c2.66 1.5 5.406 2.85 8.22 4.038M355.731 295.658c-4.039-3.478-9.57-4.657-14.888-5.016a61.373 61.373 0 0 0-19.662 1.865c-3.194.838-6.36 1.954-9.091 3.811-2.731 1.857-5.011 4.521-5.909 7.699 5.388 1.266 11.321-.026 15.695-3.417" fill="none"/><path stroke-linecap="round" stroke-linejoin="round" stroke="#242430" stroke-width="3.235" d="M322.021 300.52c-.198.661-.977 1.413-1.175 2.074-.079.264-.158.551-.063.81.259.704 1.312.448 1.958.067l6.796-4.01a9.277 9.277 0 0 0 .132 3.439c.071.307.172.634.425.822.304.226.723.181 1.097.119a28.533 28.533 0 0 0 9.857-3.61 9.778 9.778 0 0 0 .815 3.29 17.06 17.06 0 0 1 8.239-3.71M332.213 305.052c-2.714 1.168-5.515 2.551-7.158 5.006-1.693 2.53-1.862 5.761-1.777 8.804a69.994 69.994 0 0 0 3.388 19.626c2.254-.626 4.521-2.641 5.562-4.736 1.041-2.095 1.782-3.865 2.611-6.053.749-1.976.954-4.348 1.238-6.443.334-2.463-.353-4.939-1.08-7.316M335.906 316.538a10.04 10.04 0 0 0 2.768 2.388c.171.1.354.198.552.193.33-.008.581-.29.78-.554a19.595 19.595 0 0 0 3.694-8.674M342.905 313.735a6.983 6.983 0 0 0 2.308 2.607c.127.086.265.17.418.175.335.011.555-.336.698-.638a34.931 34.931 0 0 0 2.54-7.398M360.784 424.707c2.587.54 5.19 1.082 7.832 1.138 2.642.056 5.352-.403 7.628-1.746M363.651 415.563c4.423 1.087 10.583 1.599 13.31-1.353M364.795 406.655c3.58 1.278 8.657 1.37 12.904-1.393M365.881 399.254c3.97 1.385 7.911 1.14 11.448-.739M366.25 390.576c1.115.904 3.012 1.217 4.616 1.292 1.885.088 4.655-.438 6.04-1.72M366.809 382.811c3.161 1.406 7.091.892 9.784-1.281M366.934 374.09c2.629 1.465 7.164 1.345 8.826-.225M366.892 367.687c1.388.364 2.827.611 4.256.477 1.429-.134 2.856-.679 3.85-1.715M366.211 360.724c1.29.55 2.688.92 4.086.807 1.398-.113 2.796-.764 3.586-1.923M365.994 355.25c2.385.811 5.234-.01 6.824-1.964M365.342 349.19a4.89 4.89 0 0 0 3.319.677 4.893 4.893 0 0 0 2.951-1.664M364.015 342.799c2.021.828 4.571.072 5.814-1.725M358.032 337.929c2.868 1.39 6.322 1.517 9.284.34 2.962-1.177 5.388-3.639 6.52-6.618M362.657 332.762c1.528.59 3.389.192 4.54-.974M361.45 328.348c1.681.567 3.877.185 4.648-.977M360.701 324.878c1.357.352 2.91-.302 3.608-1.517" fill="none"/></g><g style="display:block"><path fill="#FF7A64" d="M376.574 311.34c-.122-1.34-.532-2.818-1.454-3.835-2.035-2.243-5.609-3.11-8.29-1.559a.555.555 0 0 0-.106.08c-.964.627-1.721 1.464-2.157 2.54-.43 1.061-.54 2.29-.411 3.421.294 2.57 1.857 4.979 4.378 5.83 1.278.431 2.595.273 3.824-.237 1.268-.526 2.499-1.197 3.287-2.357.764-1.125 1.051-2.54.929-3.883z"/><path fill="#FFEE6E" d="M364.519 309.957c-.685 1.783-.288 3.202.529 4.497.861 1.365 2.207 2.433 3.757 2.884 1.632.475 3.537.205 4.779-.956.609-.569 1.028-1.309 1.391-2.06.234-.485.451-.984.562-1.511.228-1.083-.011-2.238-.552-3.204-.541-.966-1.37-1.751-2.303-2.347-.358-.229-.736-.432-1.143-.554a4.488 4.488 0 0 0-1.107-.163c-1.214-.047-2.449.192-3.516.772-1.067.58-1.956 1.511-2.404 2.64"/><path stroke-miterlimit="10" stroke="#FFEE6E" stroke-width=".329" d="M364.519 309.957c-.685 1.783-.288 3.202.529 4.497.861 1.365 2.207 2.433 3.757 2.884 1.632.475 3.537.205 4.779-.956.609-.569 1.028-1.309 1.391-2.06.234-.485.451-.984.562-1.511.228-1.083-.011-2.238-.552-3.204-.541-.966-1.37-1.751-2.303-2.347-.358-.229-.736-.432-1.143-.554a4.488 4.488 0 0 0-1.107-.163c-1.214-.047-2.449.192-3.516.772-1.067.58-1.956 1.511-2.404 2.64" fill="none"/><path stroke-linecap="round" stroke-linejoin="round" stroke="#242430" stroke-width="1.47" d="M370.325 308.536a27.512 27.512 0 0 1-3.037 3.562c1.686-.21 3.4-.189 5.08.063l-3.758 2.765" fill="none"/><path stroke-linecap="round" stroke-linejoin="round" stroke="#242430" stroke-width="1.47" d="M368.236 308.624c1.357 2.009 1.774 4.532 3.096 6.564" fill="none"/><path fill="#FFEE6E" d="M352.63 310.905c-1.63.995-2.181 2.362-2.324 3.887-.151 1.607.265 3.274 1.218 4.577 1.003 1.372 2.678 2.32 4.37 2.158.83-.08 1.614-.412 2.359-.785.482-.241.958-.504 1.367-.854.842-.719 1.357-1.779 1.517-2.875.16-1.096-.017-2.224-.393-3.265-.144-.399-.32-.791-.568-1.136a4.52 4.52 0 0 0-.777-.805c-.933-.778-2.059-1.342-3.258-1.533-1.199-.191-2.471.004-3.515.626"/><path stroke-miterlimit="10" stroke="#FFEE6E" stroke-width=".329" d="M352.63 310.905c-1.63.995-2.181 2.362-2.324 3.887-.151 1.607.265 3.274 1.218 4.577 1.003 1.372 2.678 2.32 4.37 2.158.83-.08 1.614-.412 2.359-.785.482-.241.958-.504 1.367-.854.842-.719 1.357-1.779 1.517-2.875.16-1.096-.017-2.224-.393-3.265-.144-.399-.32-.791-.568-1.136a4.52 4.52 0 0 0-.777-.805c-.933-.778-2.059-1.342-3.258-1.533-1.199-.191-2.471.004-3.515.626" fill="none"/><path stroke-linecap="round" stroke-linejoin="round" stroke="#242430" stroke-width="1.47" d="M358.098 313.322a27.527 27.527 0 0 1-4.579.969 18.706 18.706 0 0 1 3.986 3.149l-4.663-.101" fill="none"/><path stroke-linecap="round" stroke-linejoin="round" stroke="#242430" stroke-width="1.47" d="M356.389 312.116c-.15 2.42-1.358 4.673-1.55 7.09" fill="none"/></g><g style="display:block"><path stroke-linecap="round" stroke-linejoin="round" stroke="#242430" stroke-width="3.235" d="M366.887 369.639c4.967-1.644 8.653-3.509 10.734-5.54 0 0-14.128.57-16.932 1.428l17.958 7.392M143.354 342.571c5.722 3.575 12.129 6.648 18.548 9.266" fill="none"/><path stroke-linecap="round" stroke-linejoin="round" stroke="#242430" stroke-width="3.235" d="M162.162 352.539s-12.706-11.183-15.582-16.458" fill="none"/></g><g style="display:block"><path fill="#305555" d="M298.574 379.208c3.665-.223 7.313-1.26 11.049-2.098l-6.683 12.841s-75.746 14.293-117.997-16.411l8.799-11.365s8.164 3.49 12.965 4.908c0 0 60.872 14.011 91.867 12.125z"/><path stroke-linecap="round" stroke-linejoin="round" stroke="#242430" stroke-width="3.235" d="M162.45 352.882s55.486 77.284 204.44 18" fill="none"/><path stroke-linecap="round" stroke-linejoin="round" stroke="#242430" stroke-width="3.235" d="M162.615 351.726s103.542 44.092 204.936 18" fill="none"/></g><g style="display:block"><path fill="#FF8BB5" d="m225.523 371.569-.739-.148-18.055-3.59-3.951-2.563-4.165-3.738 1.602-2.136 5.34-6.727 4.591-2.456 10.785-3.31 1.175 6.834-1.815 1.495-4.272.855s-2.349 1.068-2.562 1.601c-.214.534 1.494 1.816 1.494 1.816l6.408 2.776 5.874.855 31.716-27.446-.32-5.766-.855-5.232-9.397 5.766-8.864-2.563 21.144-13.455h3.417l1.816 8.542 2.03 15.271 15.803 2.456.748 3.632 2.67 13.455-1.923 2.99 3.097 8.33 8.223-.855 4.165 2.243-1.281 4.165-6.194 6.407-8.65.32s-2.884-2.03-2.884-2.35c0-.32-1.495-6.086-1.495-6.086l-2.456 3.097-10.358 7.048-14.203 3.844-10.465-2.883-2.776-2.99-14.418-9.504z"/><path fill="#FCED6D" d="M279.892 343.28c.017 0 .06-.013.138-.047l-.019.001c-.04.016-.078.032-.119.046z"/><path fill="#FCED6D" d="M288.424 341.005c.252-.397.32-.898.226-1.377-.006-.038-.018-.074-.026-.111-.017-.069-.031-.139-.054-.205-.17-.525-.53-.98-1.088-1.18-5.99-2.15-13.607-3.94-19.537-6.264-1.048-.412-.799.552-1.284 1.553-.172.355.169.922-.004 1.277-.137-.029-1.286-.41-1.287-.41a14.176 14.176 0 0 1-2.396-1.04l-.036-.02c-.053-.033-.13-.079-.154-.095a13.486 13.486 0 0 1-2.142-1.67 2.136 2.136 0 0 1-.082-.083 15.328 15.328 0 0 1-.849-.994c-.132-.171-.247-.36-.385-.528-.407-.498-.892-.662-1.49-.803-.485-.115-16.265-6.492-19.657-8.298-3.514-1.87-19.134-9.472-23.49-11.261-1.436-.59-2.928.59-2.778 2.104l2.303 23.172 2.303 23.171c.102 1.028.136 2.133.578 3.087.506 1.09 1.415 1.432 2.543 1.8.406.133.807.174 1.218.294.235 2.216.311 4.93.875 7.065-.191.123-.369.271-.527.454l-.064.006a2.819 2.819 0 0 0-.125-.007c-1.305-.047-2.63-.743-2.48.66.55 5.072 1.88 11.66 3.516 16.49.43 1.274 2.095 1.528 3.08.817 4.416-3.19 8.755-6.486 13.081-9.795 5.1-3.902 10.17-7.84 15.224-11.8 4.38-3.43 8.748-6.874 13.096-10.344 2.29-1.827 4.64-3.612 6.842-5.546.95-.834 1.552-1.897 2.135-3.007.105-.2.212-.4.323-.598.029-.045.194-.323.231-.385.268-.431.547-.856.843-1.268a14 14 0 0 1 .9-1.13c.074-.084.155-.163.227-.249l.003-.004c.202-.179.397-.362.61-.528.153-.12.313-.225.474-.332.027-.008.294-.161.383-.2.125-.056.257-.099.388-.143-.033 0 .025-.041.093-.043l.027-.002c.022-.009.044-.015.065-.025h.004c-.018.01-.035.016-.05.023.036-.002.07-.006.108-.01l.303.055.374.127c1.563.535 3.163.792 4.71.018.966-.482 1.745-1.15 2.48-1.917.167-.136.309-.303.42-.501z"/><path stroke-linecap="round" stroke-linejoin="round" stroke="#221F1F" stroke-width="2.1010199999999997" d="M232.124 356.804c14.621 1.504 22.644-4.055 22.21-12.595" fill="none"/><path stroke-linecap="round" stroke-linejoin="round" stroke="#221F1F" stroke-width="2.1010199999999997" d="M232.936 354.759c-1.072.956-1.584 2.501-1.297 3.909M251.721 344.95c.757-.546 1.562-1.074 2.477-1.26.914-.186 1.97.043 2.538.784" fill="none"/><path stroke-linecap="round" stroke-linejoin="round" stroke="#242430" stroke-width="3.1379499999999996" d="M273.262 367.548a34.087 34.087 0 0 1 5.056-8.681c.85-1.062 1.887-2.14 3.237-2.304 1.082-.132 2.211.412 2.81 1.324.311.475.483 1.026.65 1.57l2.877 9.308" fill="none"/><path stroke-linecap="round" stroke-linejoin="round" stroke="#242430" stroke-width="3.1379499999999996" d="M285.407 371.994c2.881-2.645 6.863-4.05 10.765-3.8.872.054 1.768.199 2.504.668 1.571 1 1.949 3.263 1.264 4.995-.685 1.732-2.182 3.01-3.741 4.028a24.085 24.085 0 0 1-12.82 3.894c-.122 0-.252-.001-.356-.066-.142-.09-.192-.27-.23-.435-1.053-4.501-2.108-9.002-3.16-13.504M278.992 374.674c-8.107 8.014-19.632 12.45-31.02 11.94M240.11 381.36c.97 1.264 1.997 2.523 3.325 3.403 1.328.88 2.885 1.332 4.416 1.773M260.946 369.801a28.321 28.321 0 0 1 2.641-8.957c.363-.746.772-1.492 1.396-2.04.49-.43 1.09-.715 1.684-.989 3.53-1.63 7.145-3.079 10.823-4.34" fill="none"/><path stroke-linecap="round" stroke-linejoin="round" stroke="#242430" stroke-width="3.1379499999999996" d="m275.59 353.068.486-4.99c.103-1.053.213-2.136.695-3.078a4.292 4.292 0 0 1 3.103-2.246 4.293 4.293 0 0 1 3.64 1.184c1.17 1.17 1.548 2.894 1.873 4.516l.98 4.894c.394 1.968.778 4.072.015 5.929M267.432 335.431c-.468-5.139-1.68-13.106-2.908-18.118-.356-1.452-1.092-3.2-2.586-3.268-.707-.033-1.358.351-1.957.726-3.806 2.38-7.5 4.939-11.064 7.665M222.448 371.089c-7.853-.603-10.596-1.715-17.756-4.994-2.308-1.056-4.758-2.474-5.538-4.89a33.7 33.7 0 0 1 10.158-10.469" fill="none"/><path stroke-linecap="round" stroke-linejoin="round" stroke="#242430" stroke-width="3.1379499999999996" d="M259.165 331.46c-.054-1.328-.638-5.263-.888-6.568a4.37 4.37 0 0 0-1.341.681M222.182 362.769c-4.74-.72-4.436-.9-8.895-2.662-.702-.277-1.422-.582-1.938-1.133 0 0 2.322-1.633 3.715-2.103" fill="none"/><path fill="#F17965" d="M213.477 347.73c.166-.05 15.445-11.527 15.445-11.527s.436-6.014.678-5.786c.243.228 4.347 1.906 4.8 1.592.453-.314 17.113-13.413 17.113-13.413s-2.303-5.36-5.006-3.817c-2.702 1.543-13.793 10.043-14.972 13.592 0 0-6.399 3.627-6.419 3.761-.02.135-8.51 1.029-17.092 10.38 0 0 .406 6.713 5.453 5.218z"/><path fill="#262626" d="m249.083 311.499-9.442 6.564a41.38 41.38 0 0 0-9.552 9.589l-1.965 1.366-.022.015-1.966 1.367a41.37 41.37 0 0 0-12.315 5.613l-9.442 6.564s-1.236.962-.303 1.685c.933.724 7.274 5.22 8.855 6.376 1.582 1.154 4.783 4.046 11.904-.904 7.12-4.95 5.987-11.534 5.987-11.534l-.41-4.074a1.172 1.172 0 0 1 1.681-1.17l3.676 1.804s5.776 3.355 12.897-1.595c7.12-4.95 5.525-8.958 4.993-10.842-.531-1.885-2.538-9.395-2.891-10.522-.353-1.127-1.685-.302-1.685-.302zm-38.202 29.869c.12-.15.242-.296.366-.44a.605.605 0 0 1-.558.691c.061-.085.125-.17.192-.251zm-.632 4.342a2.433 2.433 0 0 1-.463-1.083.604.604 0 0 1 .463 1.083zm2.092.387a.604.604 0 1 1-.69-.993.604.604 0 1 1 .69.993zm-1.725-2.482a.605.605 0 0 1-.776-.073l.034-.147a5.142 5.142 0 0 1 .297-.872.604.604 0 0 1 .445 1.092zm2.886 2.46a.603.603 0 0 1 .84-.65l-.84.65zm-.783-2.081a.605.605 0 1 1-.689-.994.605.605 0 0 1 .69.994zm2.103.378a.604.604 0 1 1-.688-.993.604.604 0 0 1 .688.993zm-1.724-2.482a.605.605 0 1 1-.69-.992.605.605 0 0 1 .69.992zm2.886 2.26a.6.6 0 0 1 .646-.499l-.646.5zm-.783-1.882a.605.605 0 1 1-.692-.993.605.605 0 0 1 .692.993zm-1.726-2.481a.604.604 0 0 1-.894-.245c.283-.263.575-.517.876-.76a.606.606 0 0 1 .018 1.005zm3.829 2.86a.604.604 0 1 1-.69-.993.604.604 0 0 1 .69.992zm-1.726-2.482a.605.605 0 1 1-.69-.994.605.605 0 0 1 .69.994zm3.074 1.92a.697.697 0 0 1 .065-.053l.015-.01-.08.063zm-.97-1.542a.604.604 0 1 1-.692-.992.604.604 0 0 1 .692.992zm-1.726-2.481a.605.605 0 0 1-.942-.408c.287-.198.591-.401.91-.606a.605.605 0 0 1 .032 1.014zm5.09-3.569a.605.605 0 0 1-.598.213c.198-.074.398-.146.598-.213zm-3.509 1.587c.347-.193.703-.38 1.066-.561a.604.604 0 1 1-1.066.561zm2.248 4.842a.604.604 0 1 1-.69-.992.604.604 0 0 1 .69.992zm-1.726-2.482a.605.605 0 1 1-.689-.994.605.605 0 0 1 .69.994zm2.103.379a.604.604 0 1 1-.69-.992.604.604 0 0 1 .69.992zm2.104.378a.605.605 0 1 1-.69-.994.605.605 0 0 1 .69.994zm-1.725-2.481a.605.605 0 1 1-.69-.994.605.605 0 0 1 .69.994zm2.103.377a.605.605 0 1 1-.69-.993.605.605 0 0 1 .69.993zm2.323.097-.498.386a.604.604 0 1 1 .498-.386zm-1.945-2.2a.605.605 0 0 1-.852-.826c.28-.07.559-.128.837-.176a.605.605 0 0 1 .015 1.002zm2.103.378a.604.604 0 1 1-.69-.991.604.604 0 0 1 .69.991zm2.111.063-.147.115-.37.286a.603.603 0 0 1 .144-1.185c.148.249.274.51.373.784zm8.818-11.547a.603.603 0 0 1-.374.446c.122-.15.247-.3.374-.446zm-1.972 6.228a5.055 5.055 0 0 1-.286-.326.606.606 0 0 1 .924-.169l-.638.495zm.967-1.643a.604.604 0 1 1-.69-.992.604.604 0 0 1 .69.992zm1.598-.348-.434.338a.605.605 0 0 1 .847-.658l-.413.32zm-1.22-1.755a.605.605 0 0 1-.925-.327 10.953 10.953 0 0 1 .478-.765.604.604 0 0 1 .447 1.092zm2.103.378a.605.605 0 1 1-.69-.994.605.605 0 0 1 .69.994zm1.161-.208a.601.601 0 0 1 .659-.512l-.659.512zm-.783-1.895a.605.605 0 1 1-.689-.994.605.605 0 0 1 .69.994zm2.103.378a.604.604 0 1 1-.69-.991.604.604 0 0 1 .69.991zm-1.724-2.48a.605.605 0 0 1-.82-.123c.296-.278.595-.548.896-.807a.606.606 0 0 1-.077.93zm3.143 1.872-.11.085a.602.602 0 0 1 .167-.129l-.057.044zm-1.04-1.496v.001a.605.605 0 0 1-.691-.993h.001a.604.604 0 1 1 .69.992zm2.103.379a.605.605 0 1 1-.69-.994.605.605 0 0 1 .69.994zm-1.725-2.482a.605.605 0 0 1-.939-.38c.303-.228.6-.444.885-.646a.603.603 0 0 1 .054 1.026zm4.916-3.64c.087-.029.175-.056.263-.081a.604.604 0 0 1-.87.295c.2-.075.403-.146.607-.214zm-2.813 4.019a.605.605 0 1 1-.69-.995.605.605 0 0 1 .69.995zm2.103.378a.604.604 0 1 1-.69-.991.604.604 0 0 1 .69.991zm-1.725-2.481a.605.605 0 0 1-.937-.372c.331-.198.669-.384 1.012-.558a.605.605 0 0 1-.075.93zm2.103.378a.605.605 0 1 1-.69-.992.605.605 0 0 1 .69.992zm2.321.102-.49.38a.604.604 0 1 1 .49-.38zm.16-1.827a.606.606 0 0 1-.848-.83 5.107 5.107 0 0 1 1.027.033.605.605 0 0 1-.179.797zm1.596.464a.605.605 0 0 1-.328-.936c.283.157.53.369.732.624l-.404.312z"/><path stroke-linecap="round" stroke-linejoin="round" stroke="#F17965" stroke-width=".6896699999999999" d="M253.657 322.234c-.531-1.885-2.538-9.395-2.891-10.522-.354-1.127-1.685-.303-1.685-.303l-9.442 6.565a41.316 41.316 0 0 0-9.552 9.588l-1.965 1.366-.022.017-1.965 1.366a41.37 41.37 0 0 0-12.316 5.612l-9.442 6.565s-1.236.961-.303 1.684c.933.724 7.274 5.222 8.855 6.377 1.582 1.153 4.782 4.047 11.903-.904 7.12-4.95 5.989-11.534 5.989-11.534l-.408-4.035a1.194 1.194 0 0 1 1.714-1.19l3.64 1.786s5.776 3.355 12.897-1.596c7.12-4.949 5.525-8.958 4.993-10.842z" fill="none"/></g><g style="display:block"><path fill="#F17865" d="M361.045 178.096c0-28.329-21.899-51.294-48.913-51.294-27.014 0-48.913 22.965-48.913 51.294 0 28.329 21.899 51.294 48.913 51.294 27.014 0 48.913-22.965 48.913-51.294z"/><path stroke-linecap="round" stroke-linejoin="round" stroke="#242430" stroke-width="3.235" d="M361.045 178.096c0-28.329-21.899-51.294-48.913-51.294-27.014 0-48.913 22.965-48.913 51.294 0 28.329 21.899 51.294 48.913 51.294 27.014 0 48.913-22.965 48.913-51.294z" fill="none"/><path fill="#FFF06C" d="M348.354 175.715c0-27.014-20.075-48.913-44.839-48.913s-44.839 21.899-44.839 48.913c0 27.014 20.075 48.913 44.839 48.913s44.839-21.899 44.839-48.913z"/><path stroke-linecap="round" stroke-linejoin="round" stroke="#242430" stroke-width="3.235" d="M348.354 175.715c0-27.014-20.075-48.913-44.839-48.913s-44.839 21.899-44.839 48.913c0 27.014 20.075 48.913 44.839 48.913s44.839-21.899 44.839-48.913z" fill="none"/><path stroke-linecap="round" stroke-linejoin="round" stroke="#F17865" stroke-width="3.734" d="M265.063 175.714c0 6.036 1.169 11.776 3.273 16.962a43.487 43.487 0 0 0 1.734 3.751 41.958 41.958 0 0 0 6.001 8.667 40.453 40.453 0 0 0 2.742 2.767 38.367 38.367 0 0 0 7.41 5.329M281.561 141.274a39.435 39.435 0 0 0-4.137 3.628 40.89 40.89 0 0 0-3.511 4.04 43.037 43.037 0 0 0-6.772 13.134M341.967 175.715c0-23.166-17.216-41.946-38.452-41.946-2.979 0-5.879.37-8.663 1.069a36.124 36.124 0 0 0-7.961 3.043" fill="none"/><path stroke-linecap="round" stroke-linejoin="round" stroke="#242430" stroke-width="3.235" d="M317.741 156.805c-9.512 3.357-19.362 4.411-28.736 8.202 6.875 3.832 8.568 4.983 14.774 8.604 3.063 1.787 10.995 7.324 13.475 9.977a278.125 278.125 0 0 1-32.331 5.657" fill="none"/><path stroke-linecap="round" stroke-linejoin="round" stroke="#242430" stroke-width="3.235" d="M308.949 148.946c-.174 3.327-2.296 9.058-2.823 12.34-.794 4.945-1.515 7.106-2.184 10.848-.896 5.011-1.503 10.322-2.608 15.284-.978 4.393-1.992 8.172-2.557 13.29" fill="none"/></g><g style="display:block" mask="url(#d)"><path fill="#FFF" d="M303.876 129.237c24.188 0 43.826 20.996 43.826 46.856 0 25.86-19.638 46.856-43.826 46.856s-43.826-20.996-43.826-46.856c0-25.86 19.638-46.856 43.826-46.856z"/></g><g style="display:block"><path fill="#FFF" d="M272 139"/><path stroke-linecap="round" stroke-linejoin="round" stroke="#FFF" d="M272 139s0 0 0 0 0 0 0 0 0 0 0 0 0 0 0 0 0 0 0 0 0 0 0 0 0 0 0 0 0 0 0 0 0 0 0 0 0 0 0 0" fill="none" stroke-width="0"/></g><g style="display:block"><path fill="#FF7A64" d="M333.569 237.729c-18.081.196-36.172.392-52.186.561a1.676 1.676 0 0 0-.197-2.993c-.96-.407-1.762-1.276-2.2-2.386-.458-1.16-.463-2.407-.012-3.421.936-2.107 3.718-3.27 5.951-2.495 1.415.493 2.543 1.713 3.087 3.152.025 1.06.126 2.116.304 3.157a1.683 1.683 0 0 0 3.32-.031 8.474 8.474 0 0 0-.269-3.683c-.002-5.022 1.95-10.121 5.422-13.862 4.157-4.481 10.365-7.014 16.614-6.772 2.669.102 4.918.693 6.686 1.758 1.255.755 2.364 1.797 3.041 2.86.422.662 1.23.924 1.943.688 1.071 5.642 3.534 11.723 7.407 18.207a1.682 1.682 0 0 0 2.887-1.726c-6.734-11.273-8.982-21.099-6.681-29.202 2.405-8.471 9.149-12.056 9.212-12.089a1.7 1.7 0 0 0 .463-.349c2.079-2.224 19.261-7.327 31.841-2.858 7.724 2.743 11.948 8.55 12.554 17.258.597 8.571-3.392 16.77-6.933 22.955a1.682 1.682 0 0 0 2.792 1.862c1.537-1.993 3.027-3.339 4.981-4.501 1.634-.97 4.497-.848 6.128.261.66.448 1.249 1.168 1.91 2.334 1.36 2.397 1.676 4.047 1.301 6.783-.228 1.662.925 2.893 2.642 3.869-18.123.188-40.049.425-62.008.663z"/><path fill="#FFEE6E" d="m386.249 236.411 1.31-.011c-.208-.121-.408-.261-.678-.255-.255.004-.436.149-.632.266zM374.528 236.519l1.098-.012c-.2-.093-.384-.221-.633-.207-.192.011-.308.144-.465.219zM363.145 236.618c.283-.001.563-.004.846-.007-.131-.046-.22-.157-.371-.161-.189-.007-.314.112-.475.168zM324.709 236.31c-.47.025-.791.303-1.007.664l2.122-.02c-.245-.383-.606-.669-1.115-.644zM312.961 236.465c-.482-.004-.822.268-1.058.626l2.086-.023c-.233-.342-.565-.6-1.028-.603zM300.089 237.123l1.99-.028c-.257-.296-.602-.5-1.045-.474-.405.024-.722.22-.945.502zM288.271 237.335l2.034-.041c-.229-.294-.552-.507-.973-.519-.47-.015-.814.227-1.061.56zM371.749 235.37c-.683.012-1.157.529-1.234 1.185l2.528-.024c-.089-.667-.599-1.175-1.294-1.161zM359.862 235.525c-.646.038-1.055.526-1.151 1.132l2.494-.021c-.113-.668-.639-1.151-1.343-1.111zM348.104 235.679c-.651.006-1.095.478-1.217 1.084l2.444-.022c-.133-.6-.58-1.066-1.227-1.062zM336.271 235.835c-.631.004-1.057.458-1.198 1.034l2.406-.022c-.151-.571-.581-1.018-1.208-1.012zM383.31 234.893a1.3 1.3 0 0 0-1.355 1.328c.001.092.079.143.096.228l2.442-.021c.02-.11.11-.185.102-.303a1.294 1.294 0 0 0-1.285-1.232zM297.407 235.698a1.314 1.314 0 0 0-1.232 1.435c.002.019.022.031.025.05.801-.012 1.654-.027 2.535-.039.008-.065.068-.105.066-.172a1.309 1.309 0 0 0-1.394-1.274zM285.641 235.847c-.057.001-.088.055-.142.062.569.268 1.03.665 1.414 1.132-.073-.67-.578-1.201-1.272-1.194zM344.484 234.754c-.736 0-1.333.616-1.311 1.351.008.274.166.482.316.689l2.022-.02c.138-.2.276-.409.284-.667a1.317 1.317 0 0 0-1.311-1.353zM333.028 234.904a1.317 1.317 0 0 0-1.36 1.306c-.001.268.15.478.289.686l2.068-.018c.14-.222.281-.453.265-.734a1.318 1.318 0 0 0-1.262-1.24zM321.195 235.06a1.314 1.314 0 0 0-1.358 1.304c-.001.251.146.444.269.645l2.103-.021c.124-.214.264-.426.249-.69a1.317 1.317 0 0 0-1.263-1.238zM309.227 235.216a1.317 1.317 0 0 0-1.223 1.277c-.005.204.128.351.208.525l1.423-.015c.2.001.358.081.548.105l.202-.002c.108-.199.25-.385.241-.627a1.316 1.316 0 0 0-1.399-1.263zM391.392 233.814a1.323 1.323 0 0 0-1.221 1.272c-.017.672.517 1.196 1.168 1.279l.295-.002c.649-.092 1.176-.621 1.152-1.289a1.318 1.318 0 0 0-1.394-1.26zM380.116 233.965c-.714-.079-1.392.484-1.45 1.205-.051.632.425 1.145 1.026 1.301l.525-.006c.575-.128 1.056-.56 1.066-1.175a1.336 1.336 0 0 0-1.167-1.325zM368.119 234.12a1.335 1.335 0 0 0-1.285 1.21c-.047.595.383 1.056.928 1.248.249-.001.506-.004.755-.007.508-.175.927-.562.935-1.127a1.321 1.321 0 0 0-1.333-1.324zM356.364 234.274a1.317 1.317 0 0 0-1.361 1.294c-.005.532.367.909.827 1.116l1.02-.01c.403-.203.735-.534.77-.999a1.323 1.323 0 0 0-1.256-1.401zM317.518 234.134c-.733 0-1.345.653-1.297 1.382.044.67.629 1.216 1.299 1.216.733 0 1.345-.651 1.297-1.382a1.324 1.324 0 0 0-1.299-1.216zM305.605 234.29a1.325 1.325 0 0 0-1.217 1.299 1.32 1.32 0 0 0 1.382 1.297 1.324 1.324 0 0 0 1.216-1.299 1.32 1.32 0 0 0-1.381-1.297zM294.218 234.439c-.731-.019-1.361.616-1.334 1.347a1.328 1.328 0 0 0 1.264 1.253c.731.021 1.361-.616 1.334-1.347a1.326 1.326 0 0 0-1.264-1.253zM364.491 233.193c-.661.011-1.242.576-1.273 1.237-.034.724.594 1.367 1.321 1.353.661-.012 1.241-.578 1.272-1.239.034-.724-.593-1.365-1.32-1.351zM352.71 233.347c-.725-.017-1.354.625-1.323 1.349a1.328 1.328 0 0 0 1.267 1.243c.725.015 1.354-.625 1.323-1.349a1.327 1.327 0 0 0-1.267-1.243zM341.133 233.499a1.328 1.328 0 0 0-1.249 1.261c-.02.725.617 1.355 1.342 1.329.662-.025 1.232-.599 1.25-1.26.02-.725-.618-1.356-1.343-1.33zM329.314 233.654a1.329 1.329 0 0 0-1.263 1.246c-.026.656.51 1.274 1.166 1.343.713.078 1.397-.521 1.426-1.246.029-.724-.602-1.362-1.329-1.343zM388.223 232.56c-.708-.028-1.354.611-1.335 1.322.017.645.593 1.228 1.239 1.254.708.029 1.354-.609 1.335-1.319-.017-.647-.592-1.229-1.239-1.257zM376.261 232.714c-.653.043-1.21.637-1.21 1.29 0 .718.66 1.337 1.374 1.29.654-.043 1.21-.637 1.21-1.291 0-.718-.66-1.338-1.374-1.289zM290.485 233.517c-.654.038-1.229.659-1.214 1.312.015.651.62 1.249 1.272 1.256.651.008 1.266-.577 1.297-1.231.033-.714-.64-1.377-1.355-1.337zM337.574 232.577c-.644-.012-1.264.566-1.301 1.215-.04.71.624 1.375 1.337 1.34.649-.031 1.228-.645 1.219-1.294-.009-.65-.605-1.247-1.255-1.261zM325.633 232.735c-.649.046-1.216.675-1.192 1.321.024.649.634 1.235 1.282 1.232.713-.001 1.35-.704 1.272-1.404-.072-.643-.725-1.196-1.362-1.149zM313.885 232.887c-.648 0-1.254.588-1.277 1.239-.025.711.651 1.366 1.361 1.316.651-.044 1.217-.669 1.195-1.318-.022-.647-.631-1.237-1.279-1.237zM302.446 233.037c-.709-.039-1.375.624-1.34 1.337.031.65.646 1.229 1.295 1.219.649-.008 1.247-.605 1.26-1.255.013-.643-.566-1.263-1.215-1.301zM384.488 231.637c-.645.032-1.223.647-1.214 1.29.009.645.605 1.243 1.25 1.257.64.012 1.26-.566 1.297-1.211.04-.704-.625-1.369-1.333-1.336zM372.778 231.792c-.704-.04-1.37.624-1.336 1.332.031.645.647 1.224 1.291 1.214.644-.008 1.242-.604 1.256-1.25.013-.639-.566-1.258-1.211-1.296zM360.756 231.948c-.639.072-1.192.726-1.146 1.357.047.645.677 1.213 1.317 1.188.643-.024 1.229-.633 1.228-1.276-.002-.707-.706-1.345-1.399-1.269zM349.364 232.098c-.644.008-1.244.603-1.259 1.248-.015.642.562 1.261 1.208 1.3.702.042 1.372-.624 1.339-1.331-.03-.643-.644-1.224-1.288-1.217zM310.529 231.962c-.649.031-1.235.673-1.203 1.318.032.649.674 1.235 1.319 1.204.648-.033 1.235-.676 1.203-1.319-.032-.65-.674-1.236-1.319-1.203zM298.696 232.117c-.649.032-1.235.674-1.203 1.319.033.65.675 1.235 1.32 1.203.648-.032 1.236-.676 1.204-1.319-.032-.649-.676-1.235-1.321-1.203zM286.864 232.272c-.649.032-1.235.675-1.203 1.32.032.649.676 1.235 1.32 1.204.649-.033 1.234-.676 1.202-1.321-.032-.649-.674-1.235-1.319-1.203zM357.605 231.021c-.639-.014-1.265.59-1.279 1.235-.014.639.59 1.265 1.234 1.279.638.014 1.266-.592 1.28-1.235.014-.639-.591-1.265-1.235-1.279zM345.693 231.176c-.643.033-1.23.676-1.198 1.314.032.643.675 1.23 1.313 1.198.643-.032 1.231-.675 1.199-1.314-.032-.642-.677-1.23-1.314-1.198zM335.062 232.343c-.747.117-1.479.001-2.173-.267-.088.164-.224.309-.228.492-.013.638.593 1.264 1.236 1.278.639.012 1.266-.594 1.279-1.237.002-.097-.089-.172-.114-.266zM322.029 231.487c-.642.032-1.231.676-1.199 1.314.032.643.676 1.231 1.314 1.198.643-.032 1.23-.675 1.198-1.313-.032-.643-.675-1.231-1.313-1.199zM392.74 232.727c.241.001.473-.132.683-.286-.08-.713-.299-1.407-.668-2.164-.598.006-1.221.554-1.249 1.162-.03.628.599 1.284 1.234 1.288zM369.106 230.56c-.634-.017-1.272.616-1.263 1.255.009.635.666 1.255 1.296 1.223.571-.031 1.147-.602 1.183-1.174.039-.625-.579-1.289-1.216-1.304zM284.332 232.369a3.206 3.206 0 0 0-.241 1.098c.256-.236.438-.551.436-.879-.001-.106-.104-.188-.138-.291-.014.026-.045.046-.057.072zM330.274 230.426c-.622.007-1.24.663-1.208 1.28.029.554.603 1.134 1.159 1.169.611.039 1.274-.58 1.29-1.202.016-.618-.619-1.255-1.241-1.247zM318.832 230.575c-.616-.026-1.267.599-1.27 1.221-.003.621.642 1.25 1.261 1.229.557-.018 1.144-.579 1.19-1.139.049-.606-.56-1.283-1.181-1.311zM306.906 230.73c-.62.026-1.226.702-1.176 1.313.045.553.638 1.119 1.191 1.137.617.021 1.26-.61 1.257-1.232-.003-.621-.654-1.244-1.272-1.218zM295.167 230.886c-.616-.028-1.267.597-1.27 1.221-.003.62.642 1.248 1.261 1.229.557-.018 1.144-.58 1.19-1.14.05-.606-.56-1.282-1.181-1.31zM376.066 230.791c.038.467.474.829.935.986a4.188 4.188 0 0 1-.765-1.42c-.06.149-.182.284-.17.434zM365.61 229.647c-.552.09-1.075.72-1.048 1.263.031.611.715 1.218 1.314 1.165.611-.054 1.201-.762 1.126-1.354-.079-.625-.79-1.173-1.392-1.074zM354.005 229.788c-.602-.033-1.266.596-1.276 1.207-.01.61.638 1.25 1.248 1.236.546-.012 1.145-.577 1.196-1.126.055-.593-.558-1.284-1.168-1.317zM342.093 229.945c-.613.012-1.233.68-1.195 1.287.038.611.729 1.213 1.326 1.153.619-.061 1.195-.767 1.112-1.364-.076-.55-.698-1.088-1.243-1.076zM389.095 229.011c-.562.01-1.157.581-1.192 1.146-.039.625.596 1.282 1.228 1.272.632-.01 1.247-.686 1.19-1.308-.052-.564-.664-1.118-1.226-1.11zM303.173 229.823c-.562.079-1.085.711-1.047 1.267.043.636.734 1.209 1.353 1.121.563-.081 1.085-.713 1.047-1.267-.043-.638-.734-1.21-1.353-1.121zM290.455 231.494c.161.449.502.85.976.879.555.035 1.179-.491 1.255-1.058.034-.25-.096-.492-.235-.714-.628.4-1.283.728-1.996.893zM350.302 228.889c-.587.011-1.149.572-1.163 1.162-.013.576.539 1.169 1.121 1.202.571.033 1.19-.503 1.245-1.079.06-.631-.562-1.296-1.203-1.285zM338.538 229.09a4.19 4.19 0 0 1-.902 1.802c.261.321.613.564 1.004.511.575-.079 1.086-.718 1.029-1.286-.054-.536-.597-.988-1.131-1.027zM326.855 229.187c-.559.067-1.086.684-1.06 1.241.029.62.716 1.211 1.322 1.139.56-.067 1.086-.683 1.06-1.24-.029-.62-.717-1.212-1.322-1.14zM315.188 229.351c-.574-.021-1.176.528-1.217 1.107-.045.64.586 1.285 1.23 1.257.584-.028 1.137-.606 1.134-1.189-.003-.579-.564-1.156-1.147-1.175zM386.66 229.344c.009-.151-.103-.286-.164-.432a14.16 14.16 0 0 0-1.491 1.334c.152.082.289.205.459.209.575.014 1.161-.532 1.196-1.111zM373.972 230.606c.641.006 1.246-.653 1.181-1.286-.059-.578-.671-1.099-1.244-1.06-.58.039-1.118.626-1.101 1.204.017.572.59 1.135 1.164 1.142zM362.171 228.414c-.575-.014-1.162.531-1.196 1.112-.034.57.496 1.182 1.071 1.236.565.054 1.189-.456 1.266-1.032.085-.643-.485-1.301-1.141-1.316zM324.51 229.433c-.003-.607-.551-1.149-1.158-1.146-.602.003-1.149.555-1.146 1.158.003.603.555 1.149 1.158 1.146.601-.003 1.149-.557 1.146-1.158zM310.375 229.682c.048.603.64 1.111 1.238 1.064.602-.047 1.111-.639 1.064-1.239-.048-.603-.64-1.11-1.239-1.063-.603.047-1.111.639-1.063 1.238zM299.756 230.901c.603-.035 1.123-.615 1.088-1.214-.035-.603-.614-1.122-1.213-1.089-.604.036-1.124.615-1.089 1.214.035.603.615 1.124 1.214 1.089zM358.566 229.79c.597-.024 1.12-.59 1.096-1.186-.024-.596-.59-1.12-1.185-1.096-.597.025-1.121.591-1.097 1.186.024.596.592 1.121 1.186 1.096zM346.675 229.946c.596.008 1.147-.528 1.156-1.127.008-.595-.531-1.149-1.128-1.157-.595-.008-1.148.531-1.156 1.127-.008.596.531 1.147 1.128 1.157zM371.495 228.429c-.036-.597-.612-1.111-1.206-1.075-.598.036-1.112.61-1.076 1.205.036.599.611 1.111 1.206 1.075.598-.036 1.111-.61 1.076-1.205zM360.792 220.449c-.525-.074-1.132.489-.98.986.118.386.496.693.937 1.267.424-.589.817-.912.891-1.295.103-.535-.312-.882-.848-.958zM373.482 221.128c-.148-.381-.547-.666-1.03-1.216-.385.618-.762.968-.81 1.36-.066.536.354.876.912.909.542.031 1.116-.565.928-1.053zM296.471 229.89c.592-.039 1.007-.482 1.009-1.078.002-.658-.502-1.131-1.163-1.088-.595.039-1.005.477-1.007 1.077-.002.661.499 1.132 1.161 1.089zM313.628 223.289c.559.019 1.021-.394 1.062-.883.046-.55-.457-1.082-1.009-1.026-.56.058-.901.396-.898.963.003.571.367.868.845.946zM325.492 223.131c.546.074 1.081-.451 1.024-1.002-.057-.561-.396-.902-.962-.899-.571.003-.868.367-.958.913.043.568.342.914.896.988zM337.386 221.082c-.564.003-.857.369-.996 1.15.254.203.556.59.944.716.501.165 1.067-.431 1.008-.974-.06-.553-.397-.895-.956-.892zM349.851 221.817c-.06-.561-.401-.899-.967-.892-.571.006-.865.372-.953.922.049.561.346.909.903.978.548.068 1.076-.455 1.017-1.008zM301.878 223.775c.565.039 1.068-.5.982-1.056-.086-.56-.443-.849-1.015-.874-.553.101-.908.41-.896.988.012.571.358.903.929.942zM339.721 222.869c-.01.654.473 1.127 1.04 1.067.56-.058.878-.392.905-.956a.952.952 0 0 0-1.038-.985c-.567.054-.853.402-.907.874zM353.499 222.854c.045-.568-.439-1.04-1.009-1.018a.985.985 0 0 0-.939.931c-.026.57.444 1.054 1.013 1.014.564-.039.891-.364.935-.927zM364.515 223.623c.477-.096.806-.403.817-.973.011-.574-.493-1.038-1.059-.964-.556.072-.872.407-.885.975-.013.572.49 1.019 1.127.962zM376.105 221.53c-.56.069-.849.417-.89.895.004.589.396 1.011.902 1.051a.978.978 0 0 0 1.05-.982c-.004-.574-.496-1.035-1.062-.964zM305.497 224.731a.947.947 0 0 0 1.009-1.022c-.041-.574-.379-.869-.858-.929-.667-.022-1.137.441-1.092 1.023.044.568.37.893.941.928zM317.371 224.58c.587-.004 1.036-.485.968-1.067-.067-.568-.416-.856-.978-.899-.569.049-.912.344-.973.911-.062.578.4 1.059.983 1.055zM343.389 228.937c.6 0 1.037-.403 1.077-.993.044-.658-.42-1.158-1.076-1.159-.6 0-1.038.403-1.078.993-.044.661.419 1.159 1.077 1.159zM318.649 228.248c.039.593.472.997 1.07 1 .663.001 1.123-.489 1.08-1.153-.039-.597-.465-.998-1.069-.999-.663-.001-1.124.489-1.081 1.152zM306.817 228.274c-.028.665.442 1.145 1.105 1.128.601-.015 1.024-.427 1.049-1.022.028-.665-.443-1.145-1.106-1.128-.604.015-1.023.425-1.048 1.022zM390.75 227.828a4.057 4.057 0 0 0-1.16-.243c.187.229.441.39.79.39.154 0 .243-.1.37-.147zM365.663 227.341c.057.585.493.962 1.091.944.601-.018 1.004-.415 1.027-1.012.025-.663-.434-1.127-1.094-1.106-.654.019-1.088.517-1.024 1.174zM354.837 228.442c.662.028 1.128-.429 1.111-1.089-.015-.599-.414-1.008-1.006-1.033-.663-.028-1.129.429-1.112 1.09.015.599.414 1.007 1.007 1.032zM368.974 223.638c.035-.59-.393-1.032-.982-1.033-.591 0-1.011.434-.991 1.026.02.588.476 1.005 1.063.948.562-.054.876-.376.91-.941zM378.505 223.387c-.001.011.01.018.01.029.127-.246.255-.488.38-.738a.914.914 0 0 0-.39.709zM320.996 225.534c.6-.003 1.024-.439.989-1.038-.033-.571-.349-.894-.914-.948-.588-.058-1.054.366-1.073.954-.019.6.401 1.035.998 1.032zM345.32 224.21c-.02-.572-.333-.901-.894-.968-.585-.072-1.062.347-1.093.933-.031.596.384 1.045.977 1.053.6.01 1.031-.418 1.01-1.018zM357.153 224.081c.009-.599-.431-1.017-1.03-.998-.593.021-1.001.478-.957 1.073.043.585.528.994 1.112.911.56-.078.866-.412.875-.986zM315.049 227.17c-.031.607.352 1.058.943 1.109.672.06 1.161-.393 1.15-1.065-.01-.613-.414-1.017-1.023-1.027-.613-.01-1.039.382-1.07.983zM304.585 226.34c-.613.006-1.023.406-1.038 1.014-.015.611.375 1.042.974 1.078.674.042 1.145-.422 1.117-1.096-.026-.61-.44-1.002-1.053-.996zM363.042 227.329c.673.026 1.129-.439 1.088-1.111-.036-.603-.458-.984-1.069-.967-.61.017-1.005.418-1.009 1.028-.004.61.389 1.025.99 1.05zM351.579 227.48c.609.004 1.026-.389 1.05-.99.027-.672-.44-1.128-1.112-1.088-.602.036-.983.457-.966 1.068.017.611.419 1.006 1.028 1.01zM340.796 226.597c.001-.672-.486-1.109-1.157-1.04-.593.061-.961.505-.92 1.115.04.6.465.981 1.075.962.609-.021 1.001-.426 1.002-1.037zM327.841 227.789c.634.044 1.06-.379 1.09-.987-.136-.29-.285-.586-.413-.874-.167-.114-.346-.217-.589-.217-.612-.001-1.023.391-1.043.995-.02.61.36 1.041.955 1.083zM375.954 225.908c.052-.599-.313-1.066-.89-1.135-.665-.079-1.165.35-1.175 1.008-.01.613.369 1.025.969 1.056.607.031 1.045-.341 1.096-.929zM298.332 225.194c.005-.375-.187-.63-.451-.805l-.089.129c-.321.479-.653.972-.996 1.467.14.085.272.176.478.191.603.042 1.05-.382 1.058-.982zM309.228 226.02c.574-.043.894-.365.935-.939.042-.603-.382-1.05-.981-1.058-.61-.01-1.03.413-1.017 1.023.013.607.454 1.02 1.063.974zM323.278 225.901c.047.603.492.976 1.107.929.603-.047.979-.493.931-1.107-.048-.603-.494-.978-1.108-.931-.603.047-.978.494-.93 1.109zM313.813 225.872c-.048-.603-.494-.976-1.108-.929-.603.046-.978.493-.93 1.107.046.603.492.978 1.107.931.603-.047.979-.495.931-1.109zM301.002 227.137c.613-.022 1.001-.442.979-1.062-.022-.614-.441-1-1.062-.978-.614.022-1 .442-.978 1.062.022.613.441.999 1.061.978zM370.28 224.954c.046.6.49.972 1.101.925.599-.046.973-.493.925-1.101-.047-.599-.492-.972-1.102-.925-.599.046-.971.491-.924 1.101zM360.803 225.08c.032-.611-.352-1.046-.952-1.078-.612-.032-1.046.351-1.078.951-.032.611.352 1.047.952 1.079.611.032 1.046-.352 1.078-.952zM348.971 225.235c.032-.613-.352-1.046-.952-1.079-.612-.032-1.046.352-1.078.952-.033.611.352 1.046.952 1.078.612.032 1.046-.351 1.078-.951zM342.827 219.619c.119-.419-.569-.994-.965-.825-.348.149-.61.502-1.126.953.599.36.978.761 1.343.747.27-.008.647-.522.748-.875zM318.299 220.833c.348-.118.842-.517.839-.786-.003-.364-.42-.726-.807-1.309-.427.536-.767.814-.898 1.168-.15.406.456 1.066.866.927zM307.66 220.127c-.118-.349-.516-.842-.786-.839-.365.003-.725.419-1.309.807.537.426.815.765 1.169.897.405.15 1.065-.455.926-.865zM380.082 220.142c.167-.379.323-.764.482-1.152-.316.199-.685.573-.66.834.01.106.11.214.178.318zM377.027 218.014c-.344.147-.603.495-1.111.941.591.356.966.753 1.326.741.267-.01.639-.517.739-.867.118-.413-.563-.982-.954-.815zM364.083 219.11c.591.356.967.753 1.327.741.267-.01.639-.517.739-.867.118-.413-.564-.982-.955-.815-.344.147-.603.495-1.111.941zM355.008 219.086c-.593-.35-.971-.746-1.332-.731-.266.011-.636.522-.732.872-.114.418.571.98.962.809.343-.15.598-.501 1.102-.95zM315.83 218.925c-.164-.321-.592-.696-.907-.7-.299-.003-.602.447-1.099.86.533.364.829.687 1.185.777.44.113 1.02-.547.821-.937zM303.983 219.044c-.175-.314-.619-.676-.929-.662-.301.012-.582.476-1.058.912.549.339.861.653 1.22.722.458.089.986-.579.767-.972zM362.805 218.189c.198-.396-.351-1.032-.797-.926-.35.083-.644.404-1.173.761.489.411.785.854 1.08.853.308 0 .732-.371.89-.688zM350.959 218.161c.003-.294-.439-.593-.847-1.086-.36.528-.678.82-.766 1.169-.11.438.535 1.006.923.809.317-.158.687-.582.69-.892zM337.168 218.428c.521.369.851.786 1.144.761.308-.025.703-.422.838-.75.165-.4-.451-1.008-.87-.866-.343.118-.611.455-1.112.855zM374.318 217.597c-.005-.497-.349-.87-.823-.792-.342.056-.635.417-1.187.813.559.382.86.737 1.204.787.477.067.811-.312.806-.808zM346.458 220.581c.015-.286-.434-.708-.772-.873-.377-.186-1.079.392-.981.821.092.401.443.745.856 1.387.445-.621.878-.967.897-1.335zM357.991 220.515c.174-.392-.419-1.068-.848-.957-.398.104-.729.465-1.359.897.633.425.992.849 1.36.857.286.007.695-.454.847-.797zM369.823 220.359c.173-.392-.419-1.066-.848-.955-.398.104-.729.463-1.359.895.633.426.993.85 1.361.858.286.007.694-.455.846-.798zM310.074 222.308c.553.025.977-.363.92-.881-.042-.381-.443-.724-.849-1.332-.446.582-.863.896-.935 1.277-.101.529.326.911.864.936zM322.848 221.268c.028-.553-.362-.977-.879-.92-.382.043-.726.443-1.333.849.581.444.897.863 1.277.935.529.101.908-.331.935-.864zM382.604 212.46c-.157.113-.332.259-.552.406.162.122.275.228.389.328.057-.244.111-.49.163-.734zM371.152 213.657c.239-.046.6-.374.594-.564-.009-.276-.3-.543-.572-.975-.331.41-.618.611-.666.86-.083.429.198.762.644.679zM359.928 213.205c.081-.442-.245-.73-.679-.644-.249.049-.45.335-.861.666.433.271.7.561.977.571.19.006.519-.355.563-.593zM308.418 216.918c.003-.271-.296-.704-.551-.783-.456-.142-.877.133-.82.668.031.292.317.557.614 1.039.373-.429.754-.674.757-.924zM354.686 216.566c.423.107.731-.162.759-.629.027-.447-.191-.793-.647-.743-.301.032-.578.3-1.107.6.474.382.704.697.995.772zM342.934 216.739c.459-.018.754-.293.655-.729-.066-.294-.367-.536-.727-1.022-.32.514-.601.779-.643 1.078-.062.443.256.691.715.673zM320.256 216.306c.063-.444-.256-.693-.714-.674-.457.018-.755.292-.656.731.067.293.367.534.727 1.02.319-.514.601-.778.643-1.077zM312.293 214.764c.45.085.739-.246.65-.686-.019-.094-.096-.186-.171-.279-.328.056-.66.097-.98.165-.036.076-.097.157-.099.231-.006.193.359.525.6.569zM336.591 213.75c.004-.192-.37-.518-.613-.558-.454-.076-.734.262-.638.7.055.25.346.448.69.861.266-.443.555-.721.561-1.003zM348.443 213.687c.068-.454-.254-.752-.691-.649-.237.057-.58.412-.563.606.023.278.332.533.632.958.312-.44.583-.661.622-.915zM379.047 215.247c.003-.233-.388-.629-.646-.665-.243-.032-.538.313-1.038.642.491.343.776.696 1.02.671.258-.028.661-.413.664-.648zM366.508 216.093c.442.026.784-.188.735-.639-.032-.297-.296-.571-.592-1.095-.376.467-.689.695-.763.985-.107.417.158.721.62.749zM346.47 217.669c.273-.006.7-.337.772-.602.13-.482-.186-.887-.723-.808-.297.043-.554.356-1.024.682.447.356.715.734.975.728zM358.253 217.523c.476.14.893-.163.828-.702-.036-.299-.341-.564-.655-1.046-.37.442-.756.701-.756.958 0 .275.318.712.583.79zM370.085 217.368c.477.14.893-.164.828-.703-.036-.299-.341-.564-.655-1.045-.37.442-.755.7-.755.957 0 .276.318.713.582.791zM380.66 216.45c.285.24.487.444.67.588.144-.406.258-.825.39-1.236-.006 0-.008-.006-.014-.006-.298.036-.565.34-1.046.654zM311.33 218.481c.284-.032.68-.346.76-.614.14-.469-.171-.796-.878-.89-.152.169-.498.389-.569.675-.117.474.176.889.687.829zM323.092 218.334c.474.117.89-.176.83-.687-.033-.283-.347-.679-.614-.76-.47-.14-.796.172-.891.879.17.151.388.497.675.568zM316.599 215.349c.052-.457-.314-.722-.738-.603-.24.068-.57.413-.561.62.012.281.311.548.652 1.08.332-.539.614-.803.647-1.097zM335.426 217.52c-.024-.286-.325-.698-.59-.784-.229-.075-.426-.037-.583.103.12.447.212.878.359 1.339.45.1.855-.162.814-.658zM374.797 214.949c.448.065.725-.283.618-.707-.061-.24-.388-.58-.59-.577-.279.006-.554.29-1.091.611.518.34.772.63 1.063.673zM363.023 215.091c.202-.007.512-.364.562-.607.089-.431-.208-.761-.651-.676-.286.056-.524.354-1.029.722.551.296.839.569 1.118.561zM351.171 215.257c.239-.064.574-.395.568-.598-.008-.278-.297-.549-.624-1.081-.337.525-.621.78-.659 1.069-.059.449.293.721.715.61zM340.251 214.763c.083-.439-.242-.742-.677-.65-.244.053-.6.361-.606.562-.008.279.266.568.564 1.119.367-.506.666-.745.719-1.031zM345.624 208.913c-.035-.251-.289-.472-.451-.707-.202.144-.567.284-.57.433-.006.249.218.501.414.887.288-.278.627-.469.607-.613zM357.473 208.51c.031-.131-.305-.349-.549-.606-.23.275-.552.514-.512.642.077.246.355.43.551.638.182-.222.45-.424.51-.674zM368.869 209.213c.197-.381.423-.634.422-.887 0-.143-.37-.286-.573-.429-.164.233-.419.454-.456.705-.02.142.32.336.607.611zM381.174 208.248c-.233-.164-.454-.419-.705-.455-.141-.021-.336.319-.611.607.383.199.636.423.886.422.145-.001.287-.371.43-.574zM334.119 209.099c.016-.143-.326-.328-.621-.597-.062.131-.122.23-.182.336-.015.244-.014.497-.021.748.125.076.276.154.392.232.156-.239.404-.466.432-.719zM372.524 209.943c.109.024.453-.372.426-.532-.041-.243-.314-.445-.588-.791-.238.378-.542.651-.497.843.049.211.404.424.659.48zM337.455 210.052c.018-.117-.396-.45-.556-.414-.247.053-.444.338-.787.631.398.231.688.527.89.476.208-.051.411-.43.453-.693zM349.303 210.136c-.07-.257-.304-.61-.521-.649-.2-.035-.464.288-.837.549.368.263.589.529.839.561.163.019.549-.351.519-.461zM361.136 209.961c-.076-.254-.323-.597-.54-.628-.202-.029-.455.301-.82.573.374.25.605.51.86.536.159.017.533-.368.5-.481zM352.342 211.552c.211.031.471-.281.842-.531-.336-.285-.559-.621-.773-.615-.223.007-.436.343-.653.535.193.218.365.58.584.611zM364.777 210.859c-.003-.219-.337-.595-.54-.605-.206-.011-.576.322-.606.541-.03.211.283.471.534.839.28-.332.615-.557.612-.775zM375.673 211.288c.217-.194.577-.367.608-.588.03-.21-.282-.469-.534-.84-.284.338-.62.562-.612.776.008.222.345.435.538.652zM341.159 211.5c-.193-.218-.365-.579-.584-.611-.211-.031-.471.281-.842.532.336.283.559.62.773.614.223-.006.436-.343.653-.535zM379.923 211.491c-.026-.219-.384-.397-.697-.686-.221.363-.549.7-.481.833.133.256.489.395.753.583.155-.244.452-.508.425-.73zM344.771 212.3c-.064-.222-.439-.495-.668-.489-.217.006-.427.343-.744.629.345.253.562.537.808.566.445.051.722-.296.604-.706zM355.934 212.838c.23.006.469-.305.703-.479-.213-.247-.386-.588-.655-.705-.133-.057-.444.299-.791.553.316.286.525.624.743.631zM338.62 206.426c.014-.093-.325-.359-.45-.328-.209.051-.375.278-.679.531.359.194.607.436.775.389.169-.046.321-.37.354-.592zM350.474 206.507c-.061-.219-.239-.517-.42-.557-.164-.035-.393.229-.726.448.323.226.508.442.719.473.131.019.451-.281.427-.364zM361.979 206.253c.027-.126-.248-.46-.34-.443-.221.042-.537.201-.581.373-.042.167.207.409.411.76.242-.308.465-.48.51-.69zM373.811 206.121c.033-.122-.223-.465-.319-.453-.218.025-.543.172-.591.339-.049.169.181.418.368.787.257-.301.486-.463.542-.673zM353.809 207.782c.024-.186-.224-.405-.352-.611-.225.16-.519.279-.645.496-.055.094.233.388.435.698.248-.242.538-.394.562-.583zM342.331 207.707c-.202-.136-.414-.388-.606-.376-.184.012-.349.301-.604.548.304.21.585.504.682.453.224-.119.357-.406.528-.625zM368.099 212.128c-.008-.228-.3-.584-.525-.635-.421-.094-.745.208-.67.646.042.243.342.442.617.771.265-.336.586-.565.578-.782zM377.474 206.953c-.013-.185-.301-.35-.547-.604-.211.304-.506.585-.454.682.119.224.406.357.625.528.136-.203.39-.414.376-.606zM365.188 207.882c.21-.297.508-.577.457-.674-.117-.226-.404-.362-.621-.536-.138.201-.392.411-.38.604.012.183.301.35.544.606z"/><path stroke-linecap="round" stroke-linejoin="round" stroke="#242430" stroke-width="3.235" d="M306.69 239.294c21.477-.232 80.057-.456 96.686-.626M262.739 240.166c18.99-.194 19.302-.459 43.95-.726M403.376 238.667c3.857 0-9.198-2.146-8.774-5.242.424-3.096.036-5.123-1.505-7.841-.627-1.105-1.375-2.181-2.426-2.895-2.146-1.459-5.702-1.642-7.933-.316-2.231 1.326-3.87 2.865-5.454 4.92 4.222-7.373 7.741-15.43 7.151-23.906-2.07-29.732-43.217-19.8-47.302-15.433 0 0-22.432 11.471-3.209 43.652" fill="none"/><path stroke-linecap="round" stroke-linejoin="round" stroke="#242430" stroke-width="3.235" d="M324.549 212.67c-.948-1.487-2.289-2.766-3.592-3.397-3.325-1.61-4.364-2.097-7.489-1.997-6.648.213-13.386 2.432-17.911 7.308-4.525 4.876-6.705 11.879-5.583 18.436.482-3.16-1.476-6.56-4.495-7.612-3.019-1.052-6.744.479-8.042 3.4s.149 6.793 3.093 8.039c-3.572.274-12.85 1.821-17.811 2.714" fill="none"/></g><g style="display:block" mask="url(#e)"><path fill="#FF7A64" d="M270.66 175.496c-2.984-1.926-6.004-4.628-12.49-5.196 2.839.137 3.994-5.536 2.148-6.996-2.267-1.795-5.347-1.973-5.347-1.973-2.93-.24-4.918 4.48-5.92 6.59.66-4.121 1.023-8.522-1.364-12.22-3.132-4.852-11.121-7.324-17.572-5.437-6.451 1.887-11.141 7.66-10.762 13.182.379 5.514 4.443 10.664 7.322 12.02l43.984.03z"/><path stroke-linecap="round" stroke-linejoin="round" stroke="#242430" stroke-width="3.697605" d="M270.66 175.496c-2.984-1.926-6.004-4.628-12.49-5.196 2.839.137 3.994-5.536 2.148-6.996-2.267-1.795-5.347-1.973-5.347-1.973-2.93-.24-4.918 4.48-5.92 6.59.66-4.121 1.023-8.522-1.364-12.22-3.132-4.852-11.121-7.324-17.572-5.437-6.451 1.887-11.141 7.66-10.762 13.182.379 5.514 4.443 10.664 7.322 12.02l43.984.03z" fill="none"/><path fill="#FFEE6E" d="M258.779 171.188c.464-.043.792.336.761.826-.03.48-.37.844-.84.746-.335-.07-.607-.436-1.131-.844.563-.354.872-.695 1.21-.728zm-3.715-1.14c.469-.139.865.163.8.682-.037.29-.337.547-.644 1.009-.355-.431-.724-.685-.722-.933.003-.266.31-.681.566-.758zm-2.18-4.384c.213-.008.437.307.766.567-.322.27-.516.564-.755.606-.429.073-.728-.243-.633-.658.05-.22.4-.507.622-.515zm-1.274 3.5c.253.035.637.423.634.654-.003.228-.397.607-.651.634-.24.024-.52-.321-1.001-.658.49-.324.78-.662 1.018-.63zm-2.37-4.444c.218.183.578.345.611.558.033.21-.264.472-.498.839-.288-.324-.626-.534-.624-.745 0-.218.328-.435.512-.652zm-.783 3.226c.194.007.564.442.52.578-.086.27-.388.621-.633.648-.227.024-.496-.33-.977-.692.535-.28.817-.545 1.09-.534zm-1.345 3.376c.487-.006.861.323.795.79-.048.339-.398.634-.774 1.183-.388-.542-.744-.83-.798-1.166-.075-.465.29-.803.777-.807zm-2.345-4.583c.325.404.603.602.653.847.084.426-.198.745-.633.666-.233-.044-.587-.367-.581-.554.009-.27.295-.534.56-.959zm-1.184 3.764c.53-.049.817.373.67.834-.083.257-.523.56-.795.552-.252-.006-.496-.396-.918-.772.48-.295.748-.586 1.043-.614zm-1.229-8.373c.394.644.633.876.65 1.123.008.14-.44.469-.52.424-.23-.129-.475-.385-.523-.63-.041-.205.185-.463.393-.917zm-1.184 3.686c.225-.006.593.262.656.48.117.403-.157.744-.593.693-.241-.028-.454-.307-.792-.555.31-.28.516-.612.729-.618zm-.77 3.124c.291.514.55.783.581 1.075.048.442-.285.653-.72.627-.454-.028-.714-.326-.609-.735.072-.284.378-.507.749-.967zm-1.48-7.525c.215.12.341.404.503.622-.199.132-.409.38-.594.362-.184-.016-.343-.301-.586-.541.301-.206.583-.494.676-.443zm-1.213 3.496c.216.033.384.386.573.6-.213.188-.421.52-.64.527-.21.005-.43-.325-.76-.606.365-.247.62-.551.827-.521zm-.942 3.11c.32.522.604.787.612 1.062.006.199-.322.524-.556.586-.415.11-.761-.158-.703-.597.038-.285.319-.54.647-1.051zm-1.284-7.473c.09-.016.36.31.334.435-.044.206-.263.375-.5.678-.2-.345-.445-.582-.404-.746.043-.168.354-.326.57-.367zm-1.15 3.151c.193-.054.478.225.862.436-.315.289-.495.565-.731.627-.149.038-.554-.267-.54-.385.029-.25.214-.624.41-.678zm-1.089 3.48c.229.05.565.402.548.588-.026.273-.325.52-.614.928-.3-.424-.563-.639-.601-.887-.07-.443.251-.723.667-.63zm-.277 4.3c-.08.258-.518.562-.792.557-.251-.002-.498-.39-.924-.763.479-.299.746-.592 1.04-.621.53-.054.82.367.676.827zm-2.23-8.678c.247.035.463.285.692.447-.14.198-.279.562-.422.562-.246.002-.492-.218-.868-.414.27-.282.46-.616.598-.595zm-1.226 3.494c.22-.026.478.264.719.417-.185.257-.322.607-.574.74-.128.066-.46-.255-.817-.473.283-.308.458-.658.672-.684zm-.748 3.151c.444-.05.653.287.627.72-.028.453-.326.715-.735.61-.282-.073-.505-.379-.965-.75.515-.29.78-.549 1.073-.58zm-1.501-8.061c.24.249.524.411.537.593.013.188-.235.395-.368.594-.215-.168-.497-.3-.615-.519-.05-.095.239-.371.446-.668zm-1.16 3.679c.21-.006.43.323.76.603-.364.246-.62.552-.827.523-.215-.031-.385-.388-.574-.6.214-.189.423-.52.642-.526zm-1.084 3.113c.386.474.695.692.762.968.102.42-.187.748-.625.678-.245-.037-.615-.317-.63-.514-.023-.276.231-.574.493-1.132zm-1.128-7.463c.093-.012.347.325.314.445-.056.206-.279.365-.531.661-.183-.362-.41-.608-.363-.773.047-.163.365-.307.58-.333zm-1.027 3.446c.213.036.444.383.512.635.03.108-.35.473-.51.453-.245-.03-.462-.293-.824-.55.367-.256.626-.574.822-.538zm-1.338 3.168c.425-.084.745.199.665.632-.043.233-.367.588-.553.582-.272-.01-.534-.294-.96-.56.404-.325.603-.606.848-.654zM263.055 173.312l-.055-.037c-.007.013.001.024-.007.037h.062zM250.637 172.534c-.355-.094-.737.387-.744.77h1.581c.001-.015.02-.036.02-.05-.01-.261-.513-.626-.857-.72zM239.16 172.712c-.294-.001-.618.282-1.035.584h1.639c-.162-.29-.401-.583-.604-.584zM226.826 173.288h1.235c-.155-.227-.356-.477-.576-.808-.28.352-.492.586-.659.808z"/><path fill="#FFEE6E" d="m261.583 173.31 1.409.002c.008-.013.001-.025.008-.038-.42-.273-.858-.573-1.294-.87-.163.17-.346.387-.576.598.182.113.312.208.453.307zM254.013 173.307h.432c-.077-.098-.139-.169-.222-.288-.076.116-.137.189-.21.288zM223.922 171.609c-.13.167-.25.288-.372.417.383.345.748.577 1.115.81-.001-.034.048-.065.039-.098-.095-.342-.415-.62-.782-1.13zM259.54 172.014c.031-.49-.298-.87-.762-.826-.339.033-.646.374-1.21.728.525.408.797.774 1.132.844.47.098.81-.267.84-.746zM247.906 172.113c.066-.468-.307-.797-.794-.791-.488.004-.852.342-.777.807.054.337.41.624.798 1.166.376-.55.725-.844.773-1.182zM235.552 171.473c-.493-.036-.87.293-.83.755.025.302.308.607.615 1.065l.234.002c.35-.41.654-.68.72-.977.105-.47-.261-.81-.739-.845zM255.862 170.73c.066-.52-.33-.822-.798-.683-.256.077-.563.492-.566.758-.002.248.367.502.722.933.307-.462.605-.718.642-1.008zM233.79 167.767c.017-.186-.32-.537-.548-.589-.416-.093-.738.187-.669.63.04.248.302.462.602.886.289-.408.59-.654.614-.927zM222.188 167.96c.08-.434-.241-.716-.666-.632-.245.048-.443.328-.846.653.425.266.687.55.959.56.186.006.51-.349.553-.582zM252.244 169.818c.003-.231-.381-.62-.634-.654-.239-.033-.528.305-1.018.628.48.338.76.683 1 .659.255-.028.649-.405.652-.633zM240.26 170.64c.434.027.77-.183.721-.625-.03-.292-.291-.56-.582-1.075-.37.46-.675.682-.747.966-.105.409.154.707.608.735zM228.652 170.774c.409.105.708-.156.736-.609.026-.433-.183-.77-.627-.72-.292.03-.56.291-1.074.582.46.37.682.675.965.747zM232.173 172.035c.273.005.712-.298.792-.556.143-.46-.146-.88-.676-.827-.294.029-.56.321-1.04.62.427.373.673.76.924.763zM243.458 171.889c.272.008.712-.296.794-.553.148-.461-.138-.882-.668-.833-.295.028-.565.318-1.044.613.422.376.666.767.918.773zM244.787 168.25c.435.08.716-.24.631-.665-.049-.245-.328-.443-.652-.847-.267.424-.551.688-.56.96-.006.186.348.51.581.553zM236.82 169.669c.234-.062.563-.387.557-.586-.008-.275-.291-.54-.612-1.062-.328.51-.61.766-.647 1.051-.059.44.287.708.702.597zM225.153 169.823c.438.07.726-.258.624-.678-.067-.276-.376-.494-.762-.968-.262.558-.516.856-.494 1.132.016.197.387.477.632.514zM248.978 168.524c.043-.136-.327-.572-.522-.579-.272-.011-.554.254-1.089.535.481.361.75.716.977.692.245-.026.547-.379.634-.648zM219.39 162.958c-.117-.002-.237.052-.368.124.023.286.143.55.187.834.21-.072.405-.26.606-.399-.142-.199-.279-.556-.425-.559zM231.427 163.246c-.229-.16-.446-.411-.693-.446-.138-.021-.329.313-.599.595.376.196.623.416.869.414.143 0 .282-.364.423-.563zM243.002 163.252c-.016-.247-.254-.479-.648-1.123-.208.453-.435.712-.394.917.048.245.293.501.522.63.08.045.53-.284.52-.424zM234.463 164.762c.236-.062.415-.34.73-.629-.384-.21-.667-.489-.86-.435-.196.054-.382.427-.41.678-.015.118.391.424.54.386zM246.237 163.928c.004-.043-.078-.115-.149-.18-.163.262-.319.521-.465.789.07.03.15.082.204.067.196-.053.381-.426.41-.676zM223.372 164.795c-.068-.252-.298-.599-.51-.635-.197-.036-.456.282-.823.538.362.257.579.52.824.55.16.02.539-.345.51-.453zM226.033 166.19c.207.03.464-.277.828-.523-.33-.28-.551-.609-.76-.603-.219.007-.428.337-.642.526.189.212.36.569.574.6zM238.28 165.51c-.19-.213-.359-.566-.575-.6-.205-.029-.461.275-.827.522.331.281.55.61.76.605.22-.007.428-.338.641-.526zM249.351 166.117c.235-.367.533-.63.5-.84-.033-.212-.393-.374-.61-.557-.184.217-.511.433-.513.651 0 .21.335.422.623.746zM241.825 166.296c-.063-.218-.431-.486-.656-.48-.213.006-.419.336-.73.617.339.248.551.528.793.556.436.051.71-.29.593-.693zM252.895 166.836c.239-.042.433-.335.755-.605-.329-.26-.554-.576-.767-.568-.223.008-.571.295-.622.515-.094.415.205.73.634.658zM230.228 166.712c-.241-.153-.5-.443-.719-.417-.214.026-.39.376-.673.684.356.218.69.539.818.473.252-.133.389-.483.574-.74zM253.682 163.19c.166.013.345-.169.523-.31-.012-.008-.018-.028-.03-.037-.247-.195-.517-.31-.778-.463-.103.082-.21.17-.329.252.259.25.426.544.614.558zM224.202 161.16c.033-.12-.22-.458-.314-.446-.215.026-.533.17-.58.333-.048.165.178.41.361.773.253-.296.477-.455.533-.66zM235.815 160.982c.026-.124-.244-.45-.334-.434-.216.041-.527.198-.57.366-.041.164.203.4.403.746.238-.303.457-.472.5-.678zM250.042 161.665c-.017.185.232.395.363.594.217-.162.502-.288.62-.503.036-.064-.09-.225-.236-.41a9.1 9.1 0 0 0-.415-.081c-.169.142-.32.27-.332.4zM238.829 162.4c.185.018.394-.231.593-.363-.162-.218-.287-.502-.503-.622-.093-.051-.375.236-.676.442.243.24.402.527.586.543zM227.797 161.977c-.013-.182-.296-.343-.538-.592-.206.297-.496.573-.445.668.117.219.4.35.615.518.133-.199.381-.406.368-.594z"/></g></g></g></svg>